<?xml version="1.0" encoding="UTF-8"?>
<svg width="77px" height="31px" viewBox="0 0 77 31" version="1.1" xmlns="http://www.w3.org/2000/svg" xmlns:xlink="http://www.w3.org/1999/xlink">
    <title>logo blue</title>
    <defs>
        <polygon id="path-1" points="0 30 76.051538 30 76.051538 0 0 0"></polygon>
    </defs>
    <g id="Symbols" stroke="none" stroke-width="1" fill="none" fill-rule="evenodd">
        <g id="header-superadmin" transform="translate(-21.000000, -16.000000)">
            <g id="logo-blue" transform="translate(21.523231, 16.334500)">
                <path d="M34.272468,21.5297893 L31.3992722,21.5297893 L31.3992722,20.0072537 C30.7774226,20.9935086 29.6620768,21.7444491 27.989058,21.7444491 C25.6949273,21.7444491 23.765202,20.3288746 23.765202,16.9407903 L23.765202,10.3792815 L26.6383978,10.3792815 L26.6383978,16.4694239 C26.6383978,18.0989206 27.5176916,19.1707443 29.018835,19.1707443 C30.4985861,19.1707443 31.3992722,18.0989206 31.3992722,16.4694239 L31.3992722,10.3792815 L34.272468,10.3792815 L34.272468,21.5297893 Z" id="Fill-1" fill="#1E375B"></path>
                <mask id="mask-2" fill="white">
                    <use xlink:href="#path-1"></use>
                </mask>
                <g id="Clip-4"></g>
                <path d="M35.6018097,21.5294204 L38.4750055,21.5294204 L38.4750055,10.3789127 L35.6018097,10.3789127 L35.6018097,21.5294204 Z M35.6018097,8.83498488 L38.4750055,8.83498488 L38.4750055,6.30480218 L35.6018097,6.30480218 L35.6018097,8.83498488 Z" id="Fill-3" fill="#1E375B" mask="url(#mask-2)"></path>
                <polygon id="Fill-5" fill="#1E375B" mask="url(#mask-2)" points="39.8050112 21.5301581 42.678207 21.5301581 42.678207 6.30480218 39.8050112 6.30480218"></polygon>
                <path d="M49.4118124,19.1710394 C51.0199169,19.1710394 52.5210603,18.0556935 52.5210603,15.9540928 C52.5210603,13.8532297 51.0199169,12.7378839 49.4118124,12.7378839 C47.803708,12.7378839 46.3025646,13.8746219 46.3025646,15.9540928 C46.3025646,18.0343013 47.803708,19.1710394 49.4118124,19.1710394 L49.4118124,19.1710394 Z M52.4568836,21.5300843 L52.4568836,20.028941 L52.392707,20.028941 C52.1138705,20.6507905 50.827387,21.7440065 48.8327473,21.7440065 C46.238388,21.7440065 43.4721532,19.8142811 43.4721532,15.9540928 C43.4721532,12.0946421 46.238388,10.1641791 48.8327473,10.1641791 C50.827387,10.1641791 52.1138705,11.2581327 52.392707,11.8799823 L52.4568836,11.8799823 L52.4568836,6.30472842 L55.3300794,6.30472842 L55.3300794,21.5300843 L52.4568836,21.5300843 Z" id="Fill-6" fill="#1E375B" mask="url(#mask-2)"></path>
                <path d="M63.3289238,15.182424 C63.3289238,13.5957117 62.4924144,12.7378101 61.2701075,12.7378101 C60.0050161,12.7378101 59.1043301,13.5957117 59.1043301,15.182424 L59.1043301,21.5300106 L56.2311343,21.5300106 L56.2311343,10.3787652 L59.1043301,10.3787652 L59.1043301,11.8157319 C59.7047874,10.8722614 60.7338267,10.1641053 62.2998844,10.1641053 C63.6719369,10.1641053 64.8728516,10.7431705 65.5588778,12.0303917 C66.2021196,11.0006147 67.4244265,10.1641053 69.2471907,10.1641053 C71.6062357,10.1641053 73.3220389,11.6438565 73.3220389,15.0540707 L73.3220389,21.5300106 L70.4267132,21.5300106 L70.4267132,15.182424 C70.4267132,13.5957117 69.6123337,12.7378101 68.3678969,12.7378101 C67.1028056,12.7378101 66.2021196,13.5957117 66.2021196,15.182424 L66.2021196,21.5300106 L63.3289238,21.5300106 L63.3289238,15.182424 Z" id="Fill-7" fill="#1E375B" mask="url(#mask-2)"></path>
                <path d="M0,0.451892105 C0,0.202562148 0.202119551,-0.000295065037 0.45218717,-0.000295065037 L2.83041137,-0.000295065037 L11.886695,-0.000295065037 L11.886695,-0.000295065037 C12.9644201,-0.000295065037 13.9831321,0.251247879 14.8889818,0.698271411 C15.4835378,0.991861123 16.0294081,1.37028203 16.5103642,1.81730556 C16.5133148,1.82025621 16.5162655,1.82320687 16.5199538,1.82615752 C17.2465514,2.5048071 17.8248789,3.34057882 18.1988738,4.2796233 C18.5086921,5.05711967 18.6790922,5.90469399 18.6790922,6.79283976 C18.6790922,8.7166638 17.8794659,10.4531215 16.59372,11.689444 C19.8357471,13.2370602 22.0752908,16.5454769 22.0752908,20.3776341 C22.0752908,23.3843468 20.6958617,26.0694386 18.5345103,27.8339276 C17.7961101,28.4373356 16.965502,28.9330448 16.0677666,29.2974501 C15.0151221,29.7245568 13.8695321,29.9709361 12.6700927,29.9974919 L12.6700927,29.9997049 L12.4524822,29.9997049 L2.83041137,29.9997049 L0.241215668,29.9997049 C0.108436401,29.9997049 0,29.8920062 0,29.7584893 L0,28.4306966 L0,27.1700312 L0,24.1677445 C0,23.895547 0.0885195112,23.6307261 0.252280607,23.4131156 L2.83041137,19.9925742 L5.39969018,16.5830977 L6.84919718,14.6592736 C7.00189333,14.4571541 7.30285967,14.4490398 7.46662077,14.6430451 L9.0061226,16.4783496 L9.25914087,16.7793159 L12.4524822,20.5856549 L15.2954339,23.9737392 C15.3758391,24.0696353 15.3581352,24.2149549 15.2556001,24.2879835 C14.5415427,24.800659 13.6806905,25.1230175 12.7482849,25.1790799 C12.667142,25.1842435 12.5889498,25.1510487 12.5365758,25.0883474 L12.4524822,24.9887629 L7.74545723,19.3788389 L7.25859992,18.7982985 L2.83041137,24.6745187 L2.83041137,27.1700312 L12.4524822,27.1700312 C13.0249084,27.1700312 13.5803683,27.098478 14.1114854,26.9656987 C15.0785611,26.7230077 15.9630185,26.2730335 16.7154344,25.6659372 C18.2578868,24.4207627 19.2448794,22.5146426 19.2448794,20.3776341 C19.2448794,16.6258821 16.2042342,13.5852369 12.4524822,13.5852369 L11.886695,13.5852369 L11.1866532,13.5852369 L8.24706779,13.5852369 C8.00511446,13.5852369 7.86717156,13.3086134 8.01249109,13.1153458 L9.59108904,11.0203841 C9.71722934,10.8529347 9.91492291,10.7548255 10.1244191,10.7548255 L11.886695,10.7548255 C12.5085446,10.7548255 13.0964617,10.611719 13.6194645,10.3564877 C14.7429246,9.8091421 15.5691067,8.74690796 15.7896678,7.47665298 C15.8287639,7.25387888 15.8486808,7.02594113 15.8486808,6.79283976 C15.8486808,5.75642381 15.4510807,4.81369102 14.8004623,4.10774792 C14.7975116,4.10479727 14.794561,4.10110895 14.7916103,4.0981583 C14.3423738,3.61425164 13.7736359,3.24246969 13.1318695,3.03002287 C12.7401706,2.90019425 12.321916,2.8301163 11.886695,2.8301163 L2.83041137,2.8301163 L2.83041137,9.11795225 L2.83041137,10.318867 L2.83041137,10.7548255 L2.83041137,13.5210603 L2.83041137,13.5852369 L2.83041137,13.7453097 L2.83041137,16.5454769 L2.83041137,16.5558042 C2.83041137,16.6494873 2.79942954,16.7409575 2.74262952,16.8161991 L0.435958593,19.8782365 C0.2958027,20.0641275 0,19.964543 0,19.7321793 L0,0.451892105 Z" id="Fill-8" fill="#1E375B" mask="url(#mask-2)"></path>
                <path d="M74.8278296,11.3648725 C74.8905309,11.3648725 74.9642971,11.3685608 74.9642971,11.2357816 C74.9642971,11.1148049 74.8905309,11.1066906 74.8278296,11.1066906 L74.6950503,11.1066906 L74.6950503,11.3648725 L74.8278296,11.3648725 Z M74.3468735,10.7939217 L74.8868426,10.7939217 C75.1914972,10.7939217 75.3323908,10.970223 75.3323908,11.2394699 C75.3323908,11.4157712 75.2888687,11.5293713 75.1015024,11.6621505 L75.3751752,12.0604883 L74.9997049,12.0604883 L74.7614399,11.6776414 L74.7068529,11.6776414 L74.7068529,12.0604883 L74.3468735,12.0604883 L74.3468735,10.7939217 Z M74.8123386,12.3422754 C75.2888687,12.3422754 75.6761415,11.9940987 75.6761415,11.4467531 C75.6761415,10.8802282 75.2888687,10.5320514 74.8123386,10.5320514 C74.3350709,10.5320514 73.9485357,10.8802282 73.9485357,11.4467531 C73.9485357,11.9940987 74.3350709,12.3422754 74.8123386,12.3422754 L74.8123386,12.3422754 Z M73.5723278,11.4460154 C73.5723278,10.6744203 74.1661462,10.1646955 74.8123386,10.1646955 C75.4585311,10.1646955 76.0516118,10.6744203 76.0516118,11.4460154 C76.0516118,12.1999066 75.4585311,12.7096314 74.8123386,12.7096314 C74.1661462,12.7096314 73.5723278,12.1999066 73.5723278,11.4460154 L73.5723278,11.4460154 Z" id="Fill-9" fill="#1E375B" mask="url(#mask-2)"></path>
            </g>
        </g>
    </g>
</svg>
